<svg xmlns="http://www.w3.org/2000/svg" viewBox="0 0 404.18 182.99"><defs><style>.cls-1,.cls-10,.cls-11,.cls-12,.cls-13,.cls-14,.cls-15{fill:#2a3345;}.cls-2,.cls-3{fill:#c17878;}.cls-3{font-size:36px;font-family:Kobenhavn-ExtraBold, Kobenhavn;font-weight:800;}.cls-4{letter-spacing:0.08em;}.cls-5{letter-spacing:0.09em;}.cls-6{letter-spacing:0.12em;}.cls-7{letter-spacing:0.04em;}.cls-8{letter-spacing:0.08em;}.cls-9{letter-spacing:0.1em;}.cls-10,.cls-11,.cls-12,.cls-13,.cls-14,.cls-15{font-family:Kobenhavn-SemiBoldItalic, Kobenhavn;font-weight:600;font-style:italic;}.cls-10{letter-spacing:0.1em;}.cls-11{letter-spacing:0em;}.cls-12{letter-spacing:-0.01em;}.cls-13{letter-spacing:-0.02em;}.cls-14{letter-spacing:-0.03em;}</style></defs><g id="Layer_2" data-name="Layer 2"><g id="Layer_1-2" data-name="Layer 1"><path class="cls-1" d="M401.48,125.89c-.92-.93-1.9-2-3.17-3.31H382.89l-8-8.1h14.75c-4.1-2.64-10.93-5.06-19.77-5.06H201c-17.41,1.26-28.52,10.39-33.24,15.86-3.41,3.95-1.64,6.65.58,6.65l222.28,0C400.22,131.94,408.7,133.21,401.48,125.89Zm-116.44,1H200.37V125.8H285ZM332,121.28H247.23v-1.13H332Zm37.85-5.65H285.09V114.5H369.8Z"/><path class="cls-2" d="M206.51,131a1,1,0,0,1,0-.1l.07-21.5h-1.13l-.07,19.93a6.53,6.53,0,0,0-4.8-.79c-3,.52-5.1,2.47-4.77,4.35s3,3,6,2.47S206.84,132.9,206.51,131Z"/><path class="cls-2" d="M285.05,131a.54.54,0,0,1,0-.1l.06-21.5H284l-.06,19.93a6.55,6.55,0,0,0-4.81-.79c-3,.52-5.1,2.47-4.77,4.35s3,3,6,2.47S285.38,132.9,285.05,131Z"/><path class="cls-2" d="M308.93,131s0-.06,0-.1l.07-21.5h-1.13l-.07,19.93a6.55,6.55,0,0,0-4.81-.79c-3,.52-5.1,2.47-4.77,4.35s3,3,6,2.47S309.26,132.9,308.93,131Z"/><path class="cls-2" d="M260.33,102.35c-42-8.62,21.36-47.64-5-63.62-13.44-8.14-35,8-59.11,3.56C157.85,35.17,5.53-82.74,2.27,109.42H93V81.79h9.92v27.63h45.35a26.46,26.46,0,1,1,52.92,0h83.93C285.09,99.2,271.9,104.72,260.33,102.35Zm-53.79,7.07h-1.13a30.5,30.5,0,1,0-61,0h-1.12a31.63,31.63,0,1,1,63.25,0Z"/><text class="cls-3" transform="translate(0 167.63)"><tspan class="cls-4">G</tspan><tspan class="cls-5" x="29.43" y="0">U</tspan><tspan class="cls-6" x="59.1" y="0">I</tspan><tspan class="cls-7" x="79.3" y="0">T</tspan><tspan class="cls-8" x="101.16" y="0">A</tspan><tspan class="cls-9" x="130.11" y="0">R</tspan><tspan class="cls-10" x="159.58" y="0"> </tspan><tspan class="cls-11" x="170.6" y="0">t</tspan><tspan class="cls-12" x="182.94" y="0">r</tspan><tspan class="cls-13" x="196.32" y="0">a</tspan><tspan class="cls-14" x="216" y="0">i</tspan><tspan class="cls-15" x="225.14" y="0">n</tspan></text></g></g></svg>