<?xml version="1.0" standalone="no"?>
<!DOCTYPE svg PUBLIC "-//W3C//DTD SVG 20010904//EN"
 "http://www.w3.org/TR/2001/REC-SVG-20010904/DTD/svg10.dtd">
<svg version="1.0" xmlns="http://www.w3.org/2000/svg"
 width="256.000000pt" height="256.000000pt" viewBox="0 0 256.000000 256.000000"
 preserveAspectRatio="xMidYMid meet">
<metadata>
Created by potrace 1.11, written by Peter Selinger 2001-2013
</metadata>
<g transform="translate(0.000000,256.000000) scale(0.100000,-0.100000)"
fill="#000000" stroke="none">
<path d="M85 2541 c-11 -5 -31 -21 -45 -36 l-25 -27 -3 -1181 c-2 -870 1
-1189 9 -1210 6 -15 25 -39 41 -52 l30 -25 1181 0 c925 0 1187 3 1207 13 13 7
35 28 47 46 l23 34 -2 1188 -3 1189 -33 32 -32 33 -1188 2 c-653 1 -1196 -2
-1207 -6z m2392 -18 c66 -31 63 38 63 -1249 0 -1284 4 -1200 -60 -1238 -26
-15 -133 -16 -1200 -16 -1292 0 -1212 -4 -1244 64 -14 31 -16 141 -16 1196 0
1289 -4 1216 64 1246 25 11 244 13 1194 14 1068 0 1167 -1 1199 -17z"/>
<path d="M2303 2493 c-18 -7 -16 -43 1 -43 8 0 18 5 21 10 3 6 11 10 17 10 7
0 -1 -13 -16 -29 -27 -28 -30 -29 -51 -15 -20 13 -25 13 -40 -2 -23 -23 -3
-44 25 -26 11 7 20 9 20 5 0 -5 -128 -136 -284 -292 -261 -261 -286 -283 -303
-270 -10 7 -38 30 -63 50 -112 92 -234 123 -328 84 -51 -22 -74 -45 -152 -156
-110 -154 -132 -168 -405 -269 -93 -35 -216 -85 -273 -111 -344 -161 -465
-358 -381 -619 94 -294 532 -706 794 -748 97 -15 182 -4 253 32 155 80 271
258 407 626 109 297 118 310 279 414 141 91 179 165 119 236 -28 33 -35 37
-159 84 -76 28 -101 57 -88 100 6 21 692 716 707 716 4 0 3 -9 -3 -20 -16 -30
-2 -45 21 -24 17 15 17 20 6 38 -13 19 -11 24 14 49 31 30 36 29 19 -4 -13
-23 -5 -40 14 -33 37 14 23 43 -63 128 -47 47 -89 86 -91 85 -3 0 -11 -3 -17
-6z m-1016 -1117 c129 -66 155 -232 52 -334 -49 -49 -94 -66 -165 -60 -146 12
-231 167 -166 300 50 101 181 145 279 94z m-319 -673 c-26 -27 -13 -36 -170
121 l-118 119 22 24 22 24 133 -133 133 -132 -22 -23z"/>
</g>
</svg>
